<!DOCTYPE svg PUBLIC "-//W3C//DTD SVG 1.1//EN" "http://www.w3.org/Graphics/SVG/1.1/DTD/svg11.dtd">

<svg fill="#000000" width="800px" height="800px" viewBox="0 0 32 32" version="1.1" xmlns="http://www.w3.org/2000/svg">

<g id="SVGRepo_bgCarrier" stroke-width="0"/>

<g id="SVGRepo_tracerCarrier" stroke-linecap="round" stroke-linejoin="round"/>

<g id="SVGRepo_iconCarrier"> <title>perspective-dice-four</title> <path d="M27.111 8.247l-9.531-5.514c-0.895-0.518-2.346-0.518-3.241 0l-9.531 5.514c-0.636 0.368-0.82 0.899-0.551 1.361l11.171 6.379c0.374 0.051 0.765 0.048 1.137-0.011l11.081-6.341c0.292-0.468 0.114-1.013-0.535-1.388zM9.961 9.966c-0.779 0.462-2.041 0.462-2.82 0s-0.779-1.211 0-1.673c0.779-0.462 2.041-0.462 2.82 0s0.779 1.211 0 1.673zM17.398 14.378c-0.779 0.462-2.041 0.462-2.82 0s-0.779-1.211 0-1.673c0.779-0.462 2.041-0.462 2.82 0s0.779 1.211 0 1.673zM17.398 5.586c-0.779 0.462-2.041 0.462-2.82 0s-0.779-1.211 0-1.673c0.779-0.462 2.041-0.462 2.82 0s0.779 1.211 0 1.673zM24.806 9.982c-0.779 0.462-2.041 0.462-2.82 0s-0.779-1.211 0-1.673c0.779-0.462 2.041-0.462 2.82 0s0.779 1.211 0 1.673zM27.597 10.144l-10.741 6.146c-0.244 0.287-0.452 0.622-0.604 0.972v11.924c0.291 0.332 0.785 0.376 1.346 0.052l9.168-5.294c0.895-0.517 1.621-1.774 1.621-2.808v-9.84c0-0.683-0.317-1.098-0.791-1.151zM20.092 24.856c0.002 0.861-0.626 1.923-1.401 2.372s-1.405 0.116-1.407-0.745c0-0.002 0-0.004 0-0.006-0.002-0.861 0.626-1.923 1.401-2.372s1.405-0.116 1.407 0.745c0 0.002 0 0.004 0 0.006zM20.092 17.199c0.002 0.861-0.626 1.923-1.401 2.372s-1.405 0.116-1.407-0.745c0-0.002 0-0.004 0-0.006-0.002-0.861 0.626-1.923 1.401-2.372s1.405-0.116 1.407 0.745c0 0.002 0 0.004 0 0.006zM23.587 18.988c0.002 0.861-0.626 1.923-1.401 2.372s-1.405 0.116-1.407-0.745c0-0.002 0-0.004 0-0.006-0.002-0.861 0.626-1.923 1.401-2.372s1.405-0.116 1.407 0.745c0 0.002 0 0.004 0 0.006zM27.081 20.821c0.002 0.861-0.626 1.923-1.401 2.372s-1.405 0.116-1.407-0.745c0-0.002 0-0.004 0-0.006-0.002-0.861 0.626-1.923 1.401-2.372s1.405-0.116 1.407 0.745c0 0.002 0 0.004 0 0.006zM27.081 13.164c0.002 0.861-0.626 1.923-1.401 2.372s-1.405 0.116-1.407-0.745c0-0.002 0-0.004 0-0.006-0.002-0.861 0.626-1.923 1.401-2.372s1.405-0.116 1.407 0.745c0 0.002 0 0.004 0 0.006zM15.7 17.255c-0.156-0.356-0.368-0.696-0.618-0.985l-10.729-6.126c-0.471 0.056-0.786 0.47-0.786 1.151v9.84c0 1.034 0.726 2.291 1.621 2.808l9.168 5.294c0.559 0.323 1.052 0.281 1.343-0.048v-11.934zM7.682 22.448c-0.002 0.861-0.631 1.194-1.407 0.745s-1.403-1.511-1.401-2.372c0-0.002 0-0.004 0-0.006 0.002-0.861 0.631-1.194 1.407-0.745s1.403 1.511 1.401 2.372c0 0.002 0 0.004 0 0.006zM7.682 18.597c-0.002 0.861-0.631 1.194-1.407 0.745s-1.403-1.511-1.401-2.372c0-0.002 0-0.004 0-0.006 0.002-0.861 0.631-1.194 1.407-0.745s1.403 1.511 1.401 2.372c0 0.002 0 0.004 0 0.006zM7.682 14.791c-0.002 0.861-0.631 1.194-1.407 0.745s-1.403-1.511-1.401-2.372c0-0.002 0-0.004 0-0.006 0.002-0.861 0.631-1.194 1.407-0.745s1.403 1.511 1.401 2.372c0 0.002 0 0.004 0 0.006zM14.671 26.483c-0.002 0.861-0.631 1.194-1.407 0.745s-1.403-1.511-1.401-2.372c0-0.002 0-0.004 0-0.006 0.002-0.861 0.631-1.194 1.407-0.745s1.403 1.511 1.401 2.372c0 0.002 0 0.004 0 0.006zM14.671 22.632c-0.002 0.861-0.631 1.194-1.407 0.745s-1.403-1.511-1.401-2.372c0-0.002 0-0.004 0-0.006 0.002-0.861 0.631-1.194 1.407-0.745s1.403 1.511 1.401 2.372c0 0.002 0 0.004 0 0.006zM14.671 18.826c-0.002 0.861-0.631 1.194-1.407 0.745s-1.403-1.511-1.401-2.372c0-0.002 0-0.004 0-0.006 0.002-0.861 0.631-1.194 1.407-0.745s1.403 1.511 1.401 2.372c0 0.002 0 0.004 0 0.006z"/> </g>

</svg>